<svg width="194" height="65" fill="none" xmlns="http://www.w3.org/2000/svg"><path d="M178.107 0H15.419c-.593 0-1.179 0-1.77.003-.495.004-.986.013-1.486.021a21.37 21.37 0 0 0-3.24.286C7.852.49 6.815.833 5.847 1.324A10.411 10.411 0 0 0 3.23 3.23 10.121 10.121 0 0 0 1.325 5.85 10.675 10.675 0 0 0 .315 8.93a21.011 21.011 0 0 0-.29 3.238c-.016.496-.017.993-.025 1.49v37.379c.008.502.01.989.025 1.49a21.01 21.01 0 0 0 .29 3.238c.177 1.072.518 2.111 1.01 3.08.49.967 1.133 1.849 1.905 2.61a10.146 10.146 0 0 0 2.618 1.907c.968.492 2.004.836 3.074 1.02a21.75 21.75 0 0 0 3.24.286c.5.01.992.017 1.487.017.591.003 1.177.003 1.77.003h162.688c.582 0 1.172 0 1.753-.003.493 0 .999-.006 1.491-.017a21.48 21.48 0 0 0 3.235-.286 11.015 11.015 0 0 0 3.086-1.02 10.145 10.145 0 0 0 2.615-1.906 10.338 10.338 0 0 0 1.911-2.611 10.68 10.68 0 0 0 1.001-3.08c.18-1.07.281-2.152.3-3.237.006-.502.006-.989.006-1.491.013-.587.013-1.172.013-1.769V15.422c0-.592 0-1.18-.013-1.766 0-.496 0-.993-.006-1.49a21.825 21.825 0 0 0-.3-3.237 10.705 10.705 0 0 0-1.001-3.078 10.46 10.46 0 0 0-4.526-4.527A10.954 10.954 0 0 0 184.586.31a21.11 21.11 0 0 0-3.235-.286c-.492-.008-.998-.018-1.491-.02C179.279 0 178.689 0 178.107 0Z" fill="#A6A6A6"/><path d="M13.657 63.272c-.493 0-.974-.006-1.463-.017a20.505 20.505 0 0 1-3.022-.264 9.516 9.516 0 0 1-2.68-.886 8.74 8.74 0 0 1-2.259-1.644 8.604 8.604 0 0 1-1.65-2.258 9.253 9.253 0 0 1-.878-2.68 20.074 20.074 0 0 1-.27-3.033c-.01-.34-.023-1.476-.023-1.476V13.656s.014-1.118.024-1.447c.012-1.014.101-2.026.267-3.027.155-.936.451-1.842.88-2.688a8.69 8.69 0 0 1 1.64-2.26A9 9 0 0 1 6.493 2.58a9.417 9.417 0 0 1 2.673-.88 20.355 20.355 0 0 1 3.033-.265l1.46-.02h166.195l1.476.02c1.007.013 2.012.1 3.006.264.939.16 1.85.458 2.702.885a9.044 9.044 0 0 1 3.905 3.914c.421.84.713 1.74.866 2.667.168 1.009.261 2.029.281 3.052.004.457.004.95.004 1.439.013.606.013 1.184.013 1.766v33.845c0 .587 0 1.16-.013 1.739 0 .526 0 1.007-.006 1.503a20.627 20.627 0 0 1-.276 2.998 9.281 9.281 0 0 1-.874 2.7 8.854 8.854 0 0 1-1.642 2.241 8.764 8.764 0 0 1-2.263 1.654 9.48 9.48 0 0 1-2.697.889c-1 .163-2.011.251-3.023.264-.474.01-.97.017-1.452.017l-1.753.003-164.45-.003Z" fill="#000"/><path d="M40.056 32.83a8.003 8.003 0 0 1 3.81-6.714 8.194 8.194 0 0 0-6.454-3.49c-2.715-.285-5.348 1.625-6.732 1.625-1.41 0-3.541-1.597-5.836-1.55a8.595 8.595 0 0 0-7.233 4.412c-3.128 5.415-.795 13.373 2.201 17.75 1.5 2.144 3.251 4.538 5.543 4.453 2.243-.093 3.081-1.43 5.789-1.43 2.682 0 3.468 1.43 5.807 1.376 2.407-.04 3.924-2.153 5.37-4.316a17.728 17.728 0 0 0 2.456-5.002 7.734 7.734 0 0 1-4.721-7.114ZM35.638 19.747a7.88 7.88 0 0 0 1.803-5.645 8.017 8.017 0 0 0-5.188 2.684 7.5 7.5 0 0 0-1.85 5.436 6.63 6.63 0 0 0 5.235-2.475ZM68.41 43.89h-7.654l-1.839 5.428h-3.242l7.25-20.082h3.37l7.25 20.082h-3.298L68.41 43.89Zm-6.862-2.505h6.068l-2.991-8.809h-.084l-2.993 8.81ZM89.203 41.998c0 4.55-2.435 7.473-6.11 7.473a4.964 4.964 0 0 1-4.607-2.562h-.07v7.252h-3.005V34.676h2.91v2.436h.055a5.193 5.193 0 0 1 4.661-2.589c3.716 0 6.166 2.938 6.166 7.475Zm-3.09 0c0-2.964-1.531-4.913-3.868-4.913-2.297 0-3.841 1.99-3.841 4.913 0 2.95 1.544 4.926 3.84 4.926 2.338 0 3.87-1.935 3.87-4.926ZM105.318 41.998c0 4.55-2.435 7.473-6.11 7.473a4.964 4.964 0 0 1-4.607-2.562h-.07v7.252h-3.005V34.676h2.91v2.436h.054a5.194 5.194 0 0 1 4.662-2.589c3.717 0 6.166 2.938 6.166 7.475Zm-3.089 0c0-2.964-1.532-4.913-3.87-4.913-2.296 0-3.84 1.99-3.84 4.913 0 2.95 1.544 4.926 3.84 4.926 2.338 0 3.87-1.935 3.87-4.926ZM115.969 43.722c.222 1.992 2.157 3.3 4.801 3.3 2.533 0 4.355-1.308 4.355-3.104 0-1.559-1.099-2.492-3.701-3.132l-2.603-.627c-3.688-.89-5.4-2.615-5.4-5.413 0-3.465 3.02-5.845 7.308-5.845 4.243 0 7.152 2.38 7.25 5.845h-3.034c-.181-2.004-1.838-3.214-4.259-3.214-2.421 0-4.078 1.224-4.078 3.005 0 1.42 1.058 2.255 3.647 2.895l2.212.543c4.121.975 5.833 2.63 5.833 5.567 0 3.757-2.993 6.11-7.753 6.11-4.454 0-7.461-2.297-7.655-5.93h3.077ZM134.786 31.211v3.465h2.784v2.38h-2.784v8.072c0 1.254.557 1.838 1.781 1.838.331-.005.661-.029.989-.07v2.367c-.551.102-1.11.149-1.67.139-2.964 0-4.12-1.114-4.12-3.953v-8.393h-2.129v-2.38h2.129v-3.465h3.02ZM139.182 41.998c0-4.607 2.714-7.502 6.945-7.502 4.245 0 6.945 2.895 6.945 7.502 0 4.619-2.686 7.501-6.945 7.501-4.258 0-6.945-2.882-6.945-7.501Zm10.828 0c0-3.16-1.448-5.026-3.884-5.026-2.435 0-3.881 1.88-3.881 5.026 0 3.172 1.446 5.023 3.881 5.023 2.436 0 3.884-1.85 3.884-5.023ZM155.55 34.676h2.866v2.492h.07a3.494 3.494 0 0 1 3.522-2.645c.346-.001.691.036 1.029.112v2.811a4.197 4.197 0 0 0-1.35-.181 3.03 3.03 0 0 0-3.132 3.368v8.685h-3.005V34.676ZM176.894 45.017c-.404 2.658-2.993 4.482-6.305 4.482-4.259 0-6.903-2.854-6.903-7.432 0-4.592 2.658-7.57 6.777-7.57 4.051 0 6.598 2.782 6.598 7.221v1.03H166.72v.181a3.812 3.812 0 0 0 3.939 4.148 3.313 3.313 0 0 0 3.381-2.06h2.854Zm-10.16-4.37h7.32a3.525 3.525 0 0 0-.983-2.642 3.528 3.528 0 0 0-2.608-1.074 3.706 3.706 0 0 0-3.729 3.716ZM61.172 14.12a4.269 4.269 0 0 1 4.54 4.795c0 3.082-1.666 4.854-4.54 4.854h-3.486v-9.65h3.486Zm-1.987 8.285h1.82a3.034 3.034 0 0 0 3.181-3.47 3.042 3.042 0 0 0-3.182-3.451h-1.82v6.92ZM67.405 20.125a3.45 3.45 0 1 1 6.868 0 3.452 3.452 0 0 1-3.434 3.784 3.45 3.45 0 0 1-3.434-3.784Zm5.39 0c0-1.579-.71-2.502-1.954-2.502-1.249 0-1.951.923-1.951 2.502 0 1.59.702 2.507 1.951 2.507 1.245 0 1.954-.923 1.954-2.508ZM83.403 23.769h-1.49l-1.506-5.363h-.114l-1.498 5.363h-1.477l-2.007-7.282h1.457l1.305 5.556h.107l1.497-5.556h1.38l1.496 5.556h.114l1.298-5.556h1.437l-1.999 7.282ZM87.09 16.487h1.384v1.156h.107a2.179 2.179 0 0 1 2.173-1.297 2.37 2.37 0 0 1 2.521 2.709v4.714h-1.437v-4.354c0-1.17-.509-1.752-1.572-1.752a1.67 1.67 0 0 0-1.738 1.846v4.26H87.09v-7.282ZM95.565 13.644h1.437v10.125h-1.437V13.644ZM99 20.125a3.45 3.45 0 1 1 6.869 0 3.45 3.45 0 1 1-6.869 0Zm5.39 0c0-1.579-.709-2.502-1.954-2.502-1.249 0-1.951.923-1.951 2.502 0 1.59.702 2.507 1.951 2.507 1.245 0 1.954-.923 1.954-2.507ZM107.382 21.71c0-1.311.976-2.067 2.708-2.175l1.973-.113v-.629c0-.769-.509-1.203-1.491-1.203-.802 0-1.358.294-1.518.81h-1.391c.147-1.252 1.323-2.054 2.975-2.054 1.826 0 2.856.909 2.856 2.447v4.976h-1.384v-1.024h-.114a2.45 2.45 0 0 1-2.187 1.143 2.2 2.2 0 0 1-2.427-2.179Zm4.681-.623v-.609l-1.778.114c-1.003.067-1.458.408-1.458 1.05 0 .656.568 1.037 1.35 1.037a1.72 1.72 0 0 0 1.705-.932c.104-.206.165-.43.181-.66ZM115.383 20.125c0-2.301 1.182-3.76 3.022-3.76a2.4 2.4 0 0 1 2.233 1.279h.108v-4h1.437v10.125h-1.377v-1.15h-.114a2.527 2.527 0 0 1-2.287 1.27c-1.852 0-3.022-1.458-3.022-3.764Zm1.484 0c0 1.544.728 2.474 1.946 2.474 1.211 0 1.96-.943 1.96-2.468 0-1.518-.757-2.474-1.96-2.474-1.21 0-1.946.936-1.946 2.468ZM128.129 20.125a3.442 3.442 0 0 1 .881-2.65 3.452 3.452 0 0 1 5.106 0 3.442 3.442 0 0 1 .881 2.65 3.437 3.437 0 0 1-2.037 3.49 3.45 3.45 0 0 1-4.831-3.49Zm5.39 0c0-1.579-.709-2.502-1.954-2.502-1.249 0-1.952.923-1.952 2.502 0 1.59.703 2.507 1.952 2.507 1.245 0 1.954-.923 1.954-2.508ZM136.925 16.487h1.384v1.156h.107a2.181 2.181 0 0 1 2.173-1.297 2.368 2.368 0 0 1 2.521 2.709v4.714h-1.437v-4.354c0-1.17-.509-1.752-1.572-1.752a1.674 1.674 0 0 0-1.661 1.136c-.076.228-.103.47-.078.71v4.26h-1.437v-7.282ZM151.23 14.674v1.846h1.578v1.21h-1.578v3.745c0 .763.315 1.097 1.03 1.097.183 0 .366-.012.548-.033v1.197c-.258.046-.519.07-.782.073-1.598 0-2.234-.562-2.234-1.966V17.73h-1.156v-1.21h1.156v-1.846h1.438ZM154.771 13.644h1.425v4.013h.113a2.242 2.242 0 0 1 2.221-1.305 2.4 2.4 0 0 1 2.508 2.715v4.702h-1.439v-4.347c0-1.163-.542-1.752-1.557-1.752a1.7 1.7 0 0 0-1.834 1.846v4.253h-1.437V13.644ZM169.417 21.803a2.954 2.954 0 0 1-3.155 2.106 3.304 3.304 0 0 1-3.251-2.34 3.305 3.305 0 0 1-.113-1.418 3.355 3.355 0 0 1 1.961-3.514 3.355 3.355 0 0 1 1.397-.29c2.026 0 3.248 1.384 3.248 3.67v.502h-5.142v.08a1.926 1.926 0 0 0 1.939 2.087 1.748 1.748 0 0 0 1.733-.883h1.383Zm-5.055-2.347h3.678a1.766 1.766 0 0 0-.478-1.34 1.756 1.756 0 0 0-1.314-.546 1.861 1.861 0 0 0-1.886 1.886Z" fill="#fff"/></svg>