<svg width="219" height="65" fill="none" xmlns="http://www.w3.org/2000/svg"><path d="M210.75 64.687H8.604c-4.448 0-8.086-3.639-8.086-8.086V8.086C.518 3.639 4.156 0 8.604 0H210.75c4.448 0 8.086 3.639 8.086 8.086V56.6c0 4.447-3.638 8.086-8.086 8.086Z" fill="#000"/><path d="M210.75 0H8.604C4.156 0 .518 3.64.518 8.087v48.516c0 4.447 3.638 8.086 8.086 8.086H210.75c4.448 0 8.086-3.64 8.086-8.086V8.086c0-4.447-3.638-8.085-8.086-8.085Zm0 1.294a6.8 6.8 0 0 1 6.793 6.792v48.516a6.8 6.8 0 0 1-6.793 6.792H8.604a6.8 6.8 0 0 1-6.792-6.792V8.086a6.8 6.8 0 0 1 6.792-6.792H210.75Z" fill="#A6A6A6"/><path d="M77.202 16.565c0 1.355-.401 2.434-1.205 3.24-.914.957-2.103 1.435-3.564 1.435-1.403 0-2.593-.485-3.571-1.457-.982-.97-1.47-2.175-1.47-3.611 0-1.438.488-2.64 1.47-3.613.978-.97 2.168-1.457 3.57-1.457.694 0 1.36.136 1.991.408.633.271 1.139.632 1.519 1.083l-.854.854c-.642-.766-1.527-1.151-2.655-1.151-1.023 0-1.906.359-2.651 1.077-.745.72-1.117 1.65-1.117 2.799 0 1.147.371 2.08 1.117 2.798.746.72 1.629 1.077 2.65 1.077 1.084 0 1.986-.36 2.71-1.084.47-.47.74-1.124.813-1.965h-3.522v-1.166h4.7c.046.254.069.498.069.733Z" fill="#fff"/><path d="M77.202 16.565c0 1.355-.401 2.434-1.205 3.24-.914.957-2.103 1.435-3.564 1.435-1.403 0-2.593-.485-3.571-1.457-.982-.97-1.47-2.175-1.47-3.611 0-1.438.488-2.64 1.47-3.613.978-.97 2.168-1.457 3.57-1.457.694 0 1.36.136 1.991.408.633.271 1.139.632 1.519 1.083l-.854.854c-.642-.766-1.527-1.151-2.655-1.151-1.023 0-1.906.359-2.651 1.077-.745.72-1.117 1.65-1.117 2.799 0 1.147.371 2.08 1.117 2.798.746.72 1.629 1.077 2.65 1.077 1.084 0 1.986-.36 2.71-1.084.47-.47.74-1.124.813-1.965h-3.522v-1.166h4.7c.046.254.069.498.069.733Z" stroke="#fff" stroke-width=".172" stroke-miterlimit="10"/><path d="M84.656 12.513h-4.419v3.076h3.985v1.166h-3.984v3.076h4.418v1.193H78.99V11.32h5.665v1.192Z" fill="#fff"/><path d="M84.656 12.513h-4.419v3.076h3.985v1.166h-3.984v3.076h4.418v1.193H78.99V11.32h5.665v1.192Z" stroke="#fff" stroke-width=".172" stroke-miterlimit="10"/><path d="M89.913 21.023h-1.247v-8.51h-2.71V11.32h6.668v1.192h-2.71v8.511Z" fill="#fff"/><path d="M89.913 21.023h-1.247v-8.51h-2.71V11.32h6.668v1.192h-2.71v8.511Z" stroke="#fff" stroke-width=".172" stroke-miterlimit="10"/><path d="M97.448 11.32h1.247v9.703h-1.247V11.32Z" fill="#fff" stroke="#fff" stroke-width=".172" stroke-miterlimit="10"/><path d="M104.224 21.023h-1.246v-8.51h-2.711V11.32h6.668v1.192h-2.711v8.511Z" fill="#fff"/><path d="M104.224 21.023h-1.246v-8.51h-2.711V11.32h6.668v1.192h-2.711v8.511Z" stroke="#fff" stroke-width=".172" stroke-miterlimit="10"/><path d="M113.363 18.957c.718.727 1.596 1.09 2.636 1.09s1.918-.363 2.636-1.09c.718-.728 1.078-1.656 1.078-2.785 0-1.129-.36-2.059-1.078-2.785-.718-.728-1.596-1.091-2.636-1.091s-1.918.364-2.636 1.091c-.717.726-1.077 1.656-1.077 2.785 0 1.129.36 2.057 1.077 2.785Zm6.194.812c-.955.981-2.14 1.471-3.558 1.471-1.418 0-2.604-.49-3.556-1.471-.954-.98-1.43-2.179-1.43-3.597 0-1.418.476-2.618 1.43-3.598.952-.98 2.138-1.472 3.556-1.472 1.41 0 2.592.493 3.551 1.478.957.985 1.436 2.182 1.436 3.592 0 1.418-.477 2.617-1.429 3.597Z" fill="#fff"/><path d="M113.363 18.957c.718.727 1.596 1.09 2.636 1.09s1.918-.363 2.636-1.09c.718-.728 1.078-1.656 1.078-2.785 0-1.129-.36-2.059-1.078-2.785-.718-.728-1.596-1.091-2.636-1.091s-1.918.364-2.636 1.091c-.717.726-1.077 1.656-1.077 2.785 0 1.129.36 2.057 1.077 2.785Zm6.194.812c-.955.981-2.14 1.471-3.558 1.471-1.418 0-2.604-.49-3.556-1.471-.954-.98-1.43-2.179-1.43-3.597 0-1.418.476-2.618 1.43-3.598.952-.98 2.138-1.472 3.556-1.472 1.41 0 2.592.493 3.551 1.478.957.985 1.436 2.182 1.436 3.592 0 1.418-.477 2.617-1.429 3.597Z" stroke="#fff" stroke-width=".172" stroke-miterlimit="10"/><path d="M122.736 21.023V11.32h1.517l4.715 7.548h.055l-.055-1.87V11.32h1.249v9.703h-1.302l-4.934-7.914h-.053l.053 1.871v6.043h-1.245Z" fill="#fff"/><path d="M122.736 21.023V11.32h1.517l4.715 7.548h.055l-.055-1.87V11.32h1.249v9.703h-1.302l-4.934-7.914h-.053l.053 1.871v6.043h-1.245Z" stroke="#fff" stroke-width=".172" stroke-miterlimit="10"/><path d="M173.452 48.515h3.017V28.3h-3.017v20.216Zm27.18-12.934-3.459 8.765h-.104l-3.59-8.765h-3.251l5.384 12.25-3.068 6.815h3.146l8.297-19.065h-3.355ZM183.519 46.22c-.99 0-2.368-.493-2.368-1.718 0-1.558 1.716-2.157 3.199-2.157 1.326 0 1.952.286 2.757.676-.234 1.873-1.847 3.199-3.588 3.199Zm.364-11.08c-2.185 0-4.449.963-5.384 3.096l2.678 1.117c.573-1.117 1.638-1.482 2.757-1.482 1.561 0 3.147.936 3.173 2.602v.206c-.546-.312-1.716-.779-3.147-.779-2.886 0-5.826 1.587-5.826 4.55 0 2.706 2.367 4.45 5.019 4.45 2.03 0 3.149-.91 3.851-1.978h.103v1.56h2.913v-7.75c0-3.59-2.678-5.591-6.137-5.591Zm-18.65 2.903h-4.292v-6.93h4.292c2.256 0 3.537 1.869 3.537 3.465 0 1.567-1.281 3.465-3.537 3.465Zm-.077-9.743h-7.231v20.216h3.016v-7.659h4.215c3.344 0 6.632-2.422 6.632-6.28 0-3.856-3.288-6.277-6.632-6.277Zm-39.429 17.923c-2.084 0-3.829-1.745-3.829-4.141 0-2.423 1.745-4.195 3.829-4.195 2.059 0 3.673 1.772 3.673 4.195 0 2.396-1.614 4.141-3.673 4.141Zm3.466-9.509h-.105c-.678-.807-1.98-1.536-3.621-1.536-3.44 0-6.592 3.02-6.592 6.904 0 3.855 3.152 6.852 6.592 6.852 1.641 0 2.943-.73 3.621-1.564h.105v.991c0 2.631-1.407 4.038-3.674 4.038-1.85 0-2.997-1.33-3.466-2.45l-2.631 1.095c.755 1.824 2.762 4.064 6.097 4.064 3.543 0 6.54-2.085 6.54-7.164v-12.35h-2.866v1.12Zm4.95 11.802h3.023V28.297h-3.023v20.218Zm7.476-6.669c-.077-2.657 2.059-4.012 3.595-4.012 1.2 0 2.216.598 2.554 1.459l-6.149 2.553Zm9.38-2.293c-.573-1.536-2.319-4.376-5.888-4.376-3.543 0-6.487 2.786-6.487 6.878 0 3.855 2.918 6.878 6.825 6.878 3.153 0 4.977-1.928 5.733-3.049l-2.345-1.564c-.781 1.147-1.85 1.902-3.388 1.902-1.536 0-2.631-.703-3.335-2.083l9.197-3.805-.312-.781Zm-73.27-2.266v2.918h6.98c-.208 1.641-.755 2.84-1.588 3.672-1.017 1.017-2.606 2.138-5.393 2.138-4.3 0-7.66-3.465-7.66-7.764 0-4.3 3.36-7.764 7.66-7.764 2.32 0 4.012.912 5.262 2.085l2.059-2.059c-1.747-1.667-4.064-2.945-7.32-2.945-5.89 0-10.84 4.795-10.84 10.683s4.95 10.682 10.84 10.682c3.177 0 5.573-1.044 7.45-2.997 1.929-1.928 2.527-4.636 2.527-6.826 0-.678-.052-1.302-.157-1.823h-9.82Zm17.916 8.935c-2.085 0-3.883-1.719-3.883-4.167 0-2.476 1.798-4.17 3.883-4.17 2.083 0 3.881 1.694 3.881 4.17 0 2.448-1.798 4.167-3.881 4.167Zm0-11.045c-3.805 0-6.906 2.891-6.906 6.878 0 3.96 3.1 6.878 6.906 6.878 3.803 0 6.903-2.918 6.903-6.878 0-3.987-3.1-6.878-6.903-6.878Zm15.06 11.045c-2.084 0-3.882-1.719-3.882-4.167 0-2.476 1.798-4.17 3.882-4.17 2.085 0 3.882 1.694 3.882 4.17 0 2.448-1.797 4.167-3.882 4.167Zm0-11.045c-3.803 0-6.903 2.891-6.903 6.878 0 3.96 3.1 6.878 6.903 6.878 3.804 0 6.904-2.918 6.904-6.878 0-3.987-3.1-6.878-6.904-6.878Z" fill="#fff"/><path d="M34.021 31.413 16.803 49.687c.002.003.002.008.003.011a4.648 4.648 0 0 0 4.491 3.445c.86 0 1.668-.233 2.36-.64l.055-.033 19.38-11.183-9.07-9.874Z" fill="#EA4335"/><path d="m51.44 28.3-.017-.01-8.367-4.85-9.426 8.388 9.46 9.457 8.322-4.801a4.657 4.657 0 0 0 2.45-4.1 4.645 4.645 0 0 0-2.422-4.083Z" fill="#FBBC04"/><path d="M16.803 15.003a4.566 4.566 0 0 0-.159 1.197V48.49c0 .414.055.816.16 1.196L34.613 31.88l-17.81-16.877Z" fill="#4285F4"/><path d="m34.148 32.345 8.91-8.909-19.357-11.223a4.655 4.655 0 0 0-6.897 2.785l-.002.005 17.346 17.342Z" fill="#34A853"/></svg>